<?xml version="1.0" standalone="no"?>
<!DOCTYPE svg PUBLIC "-//W3C//DTD SVG 20010904//EN"
 "http://www.w3.org/TR/2001/REC-SVG-20010904/DTD/svg10.dtd">
<svg version="1.0" xmlns="http://www.w3.org/2000/svg"
 width="1280.000000pt" height="1136.000000pt" viewBox="0 0 1280.000000 1136.000000"
 preserveAspectRatio="xMidYMid meet">
<g transform="translate(0.000000,1136.000000) scale(0.100000,-0.100000)"
fill="#000000" stroke="none">
<path d="M5795 11340 c-267 -36 -477 -96 -691 -200 -352 -170 -689 -471 -1389
-1240 -936 -1028 -1388 -1362 -2000 -1474 -261 -48 -589 -17 -940 88 -183 55
-287 94 -519 198 -99 44 -195 82 -214 85 -32 6 -34 5 -27 -18 31 -99 727
-1629 2085 -4586 l424 -922 190 -99 c236 -124 323 -162 473 -211 225 -74 454
-96 908 -88 330 6 365 11 563 91 509 207 811 456 1561 1286 933 1033 1412
1393 2012 1511 92 19 149 23 294 23 195 1 285 -10 499 -56 272 -58 550 -163
841 -317 l129 -68 524 -1139 c786 -1711 1518 -3300 1726 -3749 190 -410 224
-467 264 -449 10 3 64 19 122 35 105 29 160 48 160 55 0 53 -4266 9298 -4994
10824 l-122 255 -39 -3 c-103 -7 -240 -59 -259 -97 -5 -11 -12 -27 -16 -35 -4
-8 -16 -16 -28 -18 -11 -2 -112 35 -224 81 -250 104 -414 157 -606 196 -283
57 -492 69 -707 41z m379 -35 c376 -61 715 -157 953 -271 193 -92 286 -200
426 -494 118 -247 279 -614 280 -640 3 -44 -45 -38 -156 20 -124 65 -241 110
-416 159 -290 82 -463 111 -731 120 l-184 6 -64 140 c-265 584 -384 865 -399
936 -4 21 -1 34 8 41 17 12 155 3 283 -17z m-1477 -567 c31 -35 116 -191 200
-365 75 -157 252 -537 280 -601 l14 -34 27 18 c353 235 806 437 1012 451 67 5
78 3 103 -17 48 -38 377 -728 448 -941 43 -130 41 -137 -46 -158 -116 -28
-307 -86 -405 -123 -124 -47 -225 -100 -416 -219 -77 -48 -157 -96 -177 -105
-35 -17 -38 -17 -56 0 -10 9 -83 157 -161 329 -218 476 -327 697 -343 697 -8
0 -34 -14 -58 -31 -46 -33 -346 -332 -670 -667 -102 -105 -193 -192 -202 -192
-25 0 -52 46 -164 283 -238 505 -303 665 -303 748 0 40 7 56 43 105 140 190
792 844 841 844 7 0 22 -10 33 -22z m2533 -1618 c325 -46 655 -144 970 -288
l175 -80 113 -244 c137 -294 325 -709 351 -776 25 -62 15 -76 -38 -57 -20 7
-90 36 -156 65 -393 171 -647 235 -1095 275 -96 8 -182 18 -190 20 -15 5 -73
127 -292 609 -139 307 -180 410 -176 444 6 55 112 65 338 32z m-4414 -305 c8
-13 102 -212 208 -442 106 -230 210 -451 230 -491 l36 -72 28 14 c69 35 259
221 695 678 103 108 197 200 209 204 16 5 26 0 39 -17 10 -13 73 -141 141
-284 215 -457 337 -695 355 -695 18 0 100 82 378 374 258 272 511 496 561 496
23 0 26 -5 274 -540 153 -329 225 -469 245 -477 17 -6 33 3 190 104 159 104
351 199 507 252 110 37 372 101 417 101 24 0 42 -34 206 -385 187 -401 255
-565 270 -648 14 -75 -26 -117 -114 -117 -141 -1 -474 -135 -736 -296 -244
-150 -244 -150 -264 -128 -22 23 -114 218 -326 692 -87 193 -163 352 -168 352
-20 0 -203 -157 -322 -275 -66 -66 -169 -179 -228 -252 -117 -143 -305 -337
-355 -366 -30 -17 -31 -17 -49 3 -27 28 -136 242 -246 481 -142 307 -239 499
-255 499 -26 0 -116 -87 -347 -335 -348 -375 -565 -579 -595 -560 -18 11 -118
218 -400 833 -88 191 -94 202 -120 202 -17 0 -88 -36 -186 -96 -307 -186 -606
-314 -802 -344 -100 -15 -112 -19 -112 -36 0 -29 73 -208 201 -496 148 -332
212 -496 213 -547 1 -51 -29 -63 -158 -62 -336 2 -1095 226 -1261 372 -49 43
-145 207 -290 494 -146 290 -248 524 -243 563 3 24 6 27 38 24 19 -1 96 -28
170 -59 408 -169 735 -250 1087 -269 153 -8 162 -3 135 76 -31 90 -130 314
-292 664 -83 180 -148 332 -143 336 4 5 103 32 218 60 314 78 379 105 675 288
165 102 250 152 262 152 4 0 15 -11 24 -25z m5559 -1919 c215 -34 485 -112
717 -207 157 -65 237 -109 278 -156 56 -63 448 -890 467 -984 5 -25 2 -29 -16
-29 -12 0 -94 31 -184 69 -394 166 -667 228 -1052 239 l-230 7 -238 515 c-130
283 -236 522 -235 530 2 8 19 21 38 28 46 16 319 9 455 -12z m-4538 -298 c28
-46 223 -465 369 -795 49 -112 92 -203 96 -203 3 0 41 29 85 64 97 79 365 350
634 641 215 233 218 236 231 229 13 -8 82 -149 223 -454 183 -395 277 -590
286 -590 4 0 79 75 166 168 282 298 466 482 582 583 131 113 192 150 218 133
10 -6 40 -60 67 -120 27 -60 129 -286 228 -502 98 -217 178 -397 178 -402 0
-8 -300 -289 -362 -340 -17 -14 -134 -134 -259 -267 -252 -268 -299 -313 -323
-313 -29 0 -93 122 -326 619 -91 195 -170 356 -176 358 -6 2 -100 -94 -210
-214 -387 -422 -608 -638 -692 -672 -29 -12 -35 -12 -53 5 -24 22 -134 239
-309 609 -131 279 -183 379 -200 390 -5 3 -54 -22 -107 -56 -347 -219 -470
-279 -724 -348 -151 -42 -268 -81 -274 -91 -7 -12 12 -58 239 -560 223 -493
220 -485 213 -504 -9 -24 -92 -30 -256 -17 -266 20 -393 46 -626 124 -212 72
-609 238 -636 265 -25 25 -489 1038 -489 1067 0 25 33 17 170 -41 481 -202
671 -256 1007 -285 130 -11 285 -10 298 2 9 9 -14 61 -233 544 -240 529 -233
512 -207 531 11 8 35 18 55 23 288 68 375 98 585 202 77 37 190 100 250 140
124 80 199 119 232 119 16 0 31 -13 50 -42z m1229 -2658 c134 -289 243 -531
241 -539 -2 -15 -215 -150 -393 -250 -257 -144 -596 -265 -683 -245 -93 22
-147 91 -256 324 -142 304 -295 673 -295 710 0 38 24 50 119 61 210 24 529
162 836 363 88 58 166 104 174 103 8 -1 116 -221 257 -527z"/>
</g>
</svg>
